<svg xmlns="http://www.w3.org/2000/svg" viewBox="0 0 39.68 59.53"><g xmlns="http://www.w3.org/2000/svg">
    <g>
      <path d="M288.972,559.7l-.122-15.71,8.555,13.623Zm20.084-5.953a10.819,10.819,0,0,1-2.09.761c-5.386,1.335-9.212-1.593-10.694-6.717-1.089-3.761-.437-7.07,2.112-9.106l-6.206-8.754L278.6,533.3l-2.743,44.6,13.081-3.238-.046-5.782,13.3-3.307,3.151,5.018,13.3-3.3-9.588-13.544" transform="translate(-267.299 -504.881)" fill="#1a1818"/>
    </g>
    <g>
      <path d="M291.58,543.231c1.021,3.512,3.083,6.171,6.77,5.251a5.753,5.753,0,0,0,1.323-.506l-7.687-10.843c-1.154,1.494-1.095,3.734-.406,6.1" transform="translate(-259.342 -501.12)" fill="#1a1818"/>
    </g>
    <g>
      <path d="M294.824,536.979c3.7-.918,5.759,1.739,6.773,5.256.883,3.033.735,5.866-1.7,7.174l1.422,2.013c3.722-1.839,4.814-5.61,3.544-10-1.487-5.108-5.306-8.04-10.7-6.7a9.191,9.191,0,0,0-3.517,1.643l1.56,2.206a4.485,4.485,0,0,1,2.611-1.586" transform="translate(-259.568 -502.551)" fill="#1a1818"/>
    </g>
  </g></svg>