<svg xmlns="http://www.w3.org/2000/svg" viewBox="0 0 39.68 59.53">
<path xmlns="http://www.w3.org/2000/svg" d="M21.88,41.26H20.4v.81h1.48v1.44h.84V42.07H24.2v-.81H22.72V39.82h-.84Zm-2.36-.37c0-2.86-1.54-4.56-4.08-4.56-3.45,0-4.29,2.35-4.29,4.56,0,2.7,1.35,4.56,4.18,4.56s4.19-1.86,4.19-4.56M5.11,22.68l20.83-6.22L28,23.06,17.59,26.17l.85,2.7L28.09,26l2.08,6.59-9.64,2.88.9,2.84,10.78-3.22,2.09,6.59L13.13,48l-8-25.32M5.9,39.37a7,7,0,0,0,2.59-1.25V45h2V36.37H8.54A6.88,6.88,0,0,1,5.9,37.7v1.67"/>
</svg>